<svg xmlns="http://www.w3.org/2000/svg" width="1000" height="1000" viewBox="0 0 1000 1000">
  <defs>
    <style>
      .cls-1 {
        fill: #fff;
        fill-rule: evenodd;
      }
    </style>
  </defs>
  <path id="FULL-STACK_DEVELOPER" data-name="FULL-STACK DEVELOPER" class="cls-1" d="M74.271,694.815a2.634,2.634,0,0,0,1.8-.259,3.224,3.224,0,0,0,1.513-1,31.185,31.185,0,0,1-1.269-4.873q-0.616-3.16.095-3.693,1.609-1.266,8.224-3.787l48.708-18.558Q139.955,660.123,142,660q0.886-.077,2.528,2.694a31.174,31.174,0,0,1,2.3,4.482,3.224,3.224,0,0,0,1.8-.26,2.638,2.638,0,0,0,1.513-1q-0.8-2.109-2.719-6.279t-2.98-6.964q-1.065-2.793-4.95-14.7a2.646,2.646,0,0,0-1.795.259,3.24,3.24,0,0,0-1.513,1,41.642,41.642,0,0,1,1.519,5.529q0.8,3.647.09,4.178-1.608,1.266-8.224,3.787l-21.332,8.127q-1.026.391-4.155-7.822-4.063-10.665-3.695-12.439a4.525,4.525,0,0,1,1.254-2.111,48.686,48.686,0,0,1,5.058-3.952,1.824,1.824,0,0,0,.217-2.172,2.828,2.828,0,0,0-1.152-1.652l-21.559,8.215a2.877,2.877,0,0,0,.169,2.156q0.587,1.54,1.45,1.407a7.863,7.863,0,0,0,1.057-.141q1.885-.195,3.145-0.317a6.947,6.947,0,0,1,2.3.134,5.631,5.631,0,0,1,1.74.709,5.771,5.771,0,0,1,1.513,1.742,19.447,19.447,0,0,1,1.483,2.864q0.666,1.577,1.752,4.427l2.3,6.046q0.848,2.224,1.227,3.648t-0.042,1.518l-21.332,8.127q-6.273,2.391-8.316,2.516-1.406.08-4.254-7.393l-3.738-9.81a15.282,15.282,0,0,1-.966-9.135q0.99-4,6.647-8.183,0.734-.476.19-1.9a3.087,3.087,0,0,0-1.353-1.836q-1.26.807-6.19,4.155t-8.064,5.064q2.456,6.446,7.647,18.869t7.147,17.558q0.674,1.769,4.558,13.677h0ZM47.024,619.863a2.64,2.64,0,0,0,1.811.1,3.224,3.224,0,0,0,1.682-.679,31.174,31.174,0,0,1-.273-5.028q0.026-3.219.829-3.6,1.829-.92,8.813-2.072l35.169-5.8q14.394-2.375,21.3-12.608,6.577-9.622,4.4-22.81-2.444-14.815-12.005-21.774t-26.9-4.1l-32.519,5.365a47,47,0,0,1-5.334.664,7.256,7.256,0,0,1-3.055-.517q-1.052-.383-2.367-3.847a30.236,30.236,0,0,1-1.592-5.15,3.64,3.64,0,0,0-3.493.576q0.4,2.038.956,4.3t0.962,4.14q0.4,1.882.811,4.351,0.219,1.326,1.6,13.469a3.955,3.955,0,0,0,1.721-.068,3.346,3.346,0,0,0,1.732-.749,23.121,23.121,0,0,1-.037-5.1q0.252-3.35,1.015-3.972a6.922,6.922,0,0,1,2.782-1.51q1.6-.45,5.33-1.065l32.64-5.385q26.579-3.89,30.352,18.994,1.79,10.839-4.263,17.653-6.372,7.115-21.188,9.558l-29.749,4.908q-6.985,1.152-9.012.868-0.882-.1-1.941-3.143a31.186,31.186,0,0,1-1.357-4.849,3.235,3.235,0,0,0-1.811-.1,2.657,2.657,0,0,0-1.682.68q2.64,12.246,2.927,13.992,0.308,1.867,1.743,14.312h0ZM48.7,495.108q-6.713-.135-9-0.957-0.844-.274-1.272-3.469a31.161,31.161,0,0,1-.357-5.022,3.229,3.229,0,0,0-1.753-.465,2.651,2.651,0,0,0-1.784.329q0.13,12.526.062,14.3-0.073,1.891-1.163,14.37a2.637,2.637,0,0,0,1.754.465,3.226,3.226,0,0,0,1.784-.329,31.187,31.187,0,0,1,.741-4.98q0.671-3.15,1.534-3.362,1.976-.534,9.05-0.263l52.086,2q7.075,0.271,9,.956,0.845,0.278,1.271,3.469a31.135,31.135,0,0,1,.357,5.023,3.237,3.237,0,0,0,1.754.464,2.641,2.641,0,0,0,1.784-.328q0.085-2.256.081-6.9t0.11-7.631q0.326-8.476,1.085-21.886t1-19.691a37.3,37.3,0,0,1-4.592-1.306q-2.713-.928-4.849-1.774t-5.563-2.26q-3.428-1.414-4.992-2.024-0.76.7-.849,3.021-0.059,1.525.666,1.736,8.8,3.027,12.025,8.158a17.355,17.355,0,0,1,2.224,6.5,39.172,39.172,0,0,1,.521,7.9l-0.267,6.953q-0.166,4.331-.411,5.939a5.285,5.285,0,0,1-1.141,2.675q-0.637.708-8.811,0.394Zm8.6-80.125q-6.583-1.325-8.691-2.539-0.782-.42-0.636-3.64a31.171,31.171,0,0,1,.54-5.006,3.242,3.242,0,0,0-1.643-.768,2.654,2.654,0,0,0-1.814.007q-2.094,12.353-2.475,14.08-0.407,1.848-3.693,13.936a2.641,2.641,0,0,0,1.643.768,3.221,3.221,0,0,0,1.814-.007,31.168,31.168,0,0,1,1.613-4.77q1.219-2.98,2.106-3.036,2.039-.175,8.953,1.346l50.9,11.208q6.916,1.522,8.691,2.538,0.783,0.423.636,3.64a31.188,31.188,0,0,1-.539,5.006,3.22,3.22,0,0,0,1.643.768,2.637,2.637,0,0,0,1.814-.007q0.485-2.205,1.3-6.775t1.462-7.49q1.824-8.285,4.949-21.347t4.478-19.2a37.113,37.113,0,0,1-4.288-2.1q-2.5-1.4-4.457-2.606t-5.074-3.211q-3.122-2-4.554-2.877-0.873.558-1.371,2.823-0.328,1.489.348,1.826,8.126,4.541,10.387,10.162a17.347,17.347,0,0,1,1.036,6.79,39.26,39.26,0,0,1-.888,7.867l-1.5,6.8q-0.933,4.233-1.459,5.772a5.3,5.3,0,0,1-1.6,2.43q-0.753.584-8.741-1.175Zm53.57-44.007q1.254,0.482,1.56-.316,8.571-25.542,9.3-27.944a15.331,15.331,0,0,0-5.584-3.845,0.88,0.88,0,0,0-1.332.4q-1.331,3.8-9.182,27.987a14.952,14.952,0,0,0,5.242,3.714h0Zm-21.5-83.364a22.508,22.508,0,0,0,2.362,11.467,19.332,19.332,0,0,0,8.147,8.464,15.9,15.9,0,0,0,3.679,1.484,31.7,31.7,0,0,0,3.533.739,12.581,12.581,0,0,0,3.762-.111q2.145-.345,3.494-0.574a17.885,17.885,0,0,0,3.728-1.247q2.381-1.017,3.423-1.451t3.562-1.827q2.52-1.393,3.207-1.816t3.265-1.922q1.15-.687,2.99-1.866t2.949-1.854q1.107-.677,2.744-1.549a18.764,18.764,0,0,1,5.47-2.059,10.2,10.2,0,0,1,2.908-.272,13.66,13.66,0,0,1,2.968.565,16.031,16.031,0,0,1,3.219,1.368q6.031,3.346,7.483,8.969a14.575,14.575,0,0,1-1.569,11.066,18.776,18.776,0,0,1-5.036,5.93,17.714,17.714,0,0,1-5.912,3.107,23.405,23.405,0,0,1-6.115.83,31.431,31.431,0,0,1-5.3-.324,28.763,28.763,0,0,1-3.8-.887,1.207,1.207,0,0,0-1.612.641,4.432,4.432,0,0,0-.259,3.486q1.281,0.709,7.189,3.082t10.6,3.857q0.836-1,3.173-3.579t3.777-4.291q1.439-1.715,3.427-4.415a48.786,48.786,0,0,0,3.38-5.21,28.494,28.494,0,0,0,3.191-9.083,27.432,27.432,0,0,0,.046-9.329,21.274,21.274,0,0,0-3.448-8.44,20.017,20.017,0,0,0-6.942-6.295,15.412,15.412,0,0,0-4.059-1.555,18.129,18.129,0,0,0-4.023-.487,18.313,18.313,0,0,0-4.176.545,39.92,39.92,0,0,0-3.983,1.14,41.976,41.976,0,0,0-4.022,1.712q-2.328,1.116-3.742,1.9t-3.654,2.056q-2.24,1.269-3.248,1.827-1.091.582-3.094,1.739t-3.15,1.777q-1.146.619-3.017,1.536a24.314,24.314,0,0,1-3.144,1.327q-1.275.409-3,.813a11.688,11.688,0,0,1-3.157.343,14.862,14.862,0,0,1-3.08-.488,13.564,13.564,0,0,1-3.2-1.285,15.267,15.267,0,0,1-6.453-6.862,10.185,10.185,0,0,1-.88-5.269,14.809,14.809,0,0,1,1.942-6.078,13.573,13.573,0,0,1,3.822-4.371,15.541,15.541,0,0,1,4.984-2.5,25.606,25.606,0,0,1,5.436-.927,22.452,22.452,0,0,1,5.181.223,20.655,20.655,0,0,1,4.133,1.106,1.809,1.809,0,0,0,1.078-.937,4.308,4.308,0,0,0,.482-1.687,1.049,1.049,0,0,0-.412-1.206q-10.958-5.034-15.986-6.917-1.523,1.739-3.582,3.876T97.9,268.9a32.735,32.735,0,0,0-2.494,3.048A39.288,39.288,0,0,0,92.7,276.2,26.319,26.319,0,0,0,89.366,287.612ZM124.151,227.3a14.737,14.737,0,0,1-2.665,2.394,15.74,15.74,0,0,1-2.983,1.819,3.326,3.326,0,0,0-2.06,1.943q8.955,9.2,14.254,15.74a2.782,2.782,0,0,0,2.129-1.256,1.97,1.97,0,0,0,.609-1.71,26.944,26.944,0,0,1-5.65-10.209,8.9,8.9,0,0,1,1.528-8.288l9.962-12.2,48.217,39.382q5.484,4.479,6.61,6.187,0.507,0.73-1.075,3.535a31.2,31.2,0,0,1-2.741,4.224,3.229,3.229,0,0,0,1.12,1.427,2.636,2.636,0,0,0,1.622.812q7.443-10.075,8.639-11.542,1.119-1.371,9.507-10.675a2.642,2.642,0,0,0-1.12-1.427,3.227,3.227,0,0,0-1.621-.813,31.2,31.2,0,0,1-3.592,3.529q-2.433,2.111-3.249,1.759-1.9-.762-7.382-5.241l-48.217-39.382L155.8,195.3a8.907,8.907,0,0,1,7.816-3.152,26.963,26.963,0,0,1,11.132,3.5,1.969,1.969,0,0,0,1.553-.938,2.782,2.782,0,0,0,.806-2.337q-7.464-3.888-18.269-10.823a2.447,2.447,0,0,0-1.278,1.95,17.214,17.214,0,0,1-1.294,3.514,16.2,16.2,0,0,1-1.921,3.317Zm98.4-.686a6.008,6.008,0,0,1-1.422,3.415,17.085,17.085,0,0,1-2.653,3.1,5.691,5.691,0,0,0,1.08,1.646,2.885,2.885,0,0,0,1.215,1.05q1.54-1.392,3.188-3.034t3.053-2.958q1.4-1.316,3.31-2.938,1.814-1.542,3.22-2.62t3.107-2.283q1.7-1.2,3.086-2.306a5.664,5.664,0,0,0-1.176-1.523,3.284,3.284,0,0,0-1.3-1.014c-0.31.263-.786,0.616-1.427,1.054s-1.446.923-2.412,1.451a7.975,7.975,0,0,1-2.784.967,2.1,2.1,0,0,1-2.007-.617,27.478,27.478,0,0,1-4.315-7.708q-2.218-5.807-5.469-14.9l0.228-.675q3.946-3.838,9.8-8.823,7.994-6.8,9.282-7.739a0.989,0.989,0,0,1,.875-0.1l4.9,2.56q4.9,2.559,10.34,5.746t6.5,4.442a2.384,2.384,0,0,1,.736,1.618,6.878,6.878,0,0,1-1.616,2.858,20.623,20.623,0,0,1-2.562,2.781,2.577,2.577,0,0,0,.752,1.684,2.634,2.634,0,0,0,1.45,1.091q1.446-1.312,3.374-3.192t3.517-3.354q1.59-1.473,3.5-3.1,0.929-.79,10.622-8.237a8.323,8.323,0,0,0-1.035-1.4,3.353,3.353,0,0,0-1.446-1.134,14.458,14.458,0,0,1-4.148,2.047q-3.032,1.1-4.863.172-0.165-.1-7.592-4.118L200.3,146.97a2.459,2.459,0,0,1-.394.055,0.708,0.708,0,0,0-.4.141,5.038,5.038,0,0,0-1.032,2.6,8.18,8.18,0,0,0-.206,3.1q6.631,19.284,21.219,61.286,2.844,8.239,3.067,12.457h0Zm10.6-49.892,0.079,0.093a0.913,0.913,0,0,1,.145.358,0.346,0.346,0,0,1-.107.251q-4.086,3.959-7.572,6.925-3.625,3.085-8.618,7.013-0.186.159-.5-0.214l-10.751-29.961Zm33.5-73.658a39.447,39.447,0,0,0-7.063,14.319,43.59,43.59,0,0,0,4.235,31.538,40.75,40.75,0,0,0,23.525,19.126,38.449,38.449,0,0,0,15.519,1.3,42.2,42.2,0,0,0,16.033-5.2q14.41-8,20.285-17.536,0.54-1.416-1.563-8.416a57.073,57.073,0,0,0-3.229-9.028,6.013,6.013,0,0,0-3.89,1.041q2.763,9.007.359,16a23.536,23.536,0,0,1-11.248,12.941,29.265,29.265,0,0,1-11.046,3.616,27.229,27.229,0,0,1-10.691-.839,35.845,35.845,0,0,1-9.7-4.529,42.685,42.685,0,0,1-8.441-7.288,51.073,51.073,0,0,1-6.587-9.293,40.547,40.547,0,0,1-4.964-16.371,34.472,34.472,0,0,1,2.719-16.864A24.927,24.927,0,0,1,281.965,95.3q17.879-9.919,29.568,3.977a2.6,2.6,0,0,0,1.458-.39,3.683,3.683,0,0,0,1.35-1.342,1.251,1.251,0,0,0,.229-1.349q-0.592-1.067-11.22-14.436a122.339,122.339,0,0,0-23.873,10.313A40.84,40.84,0,0,0,266.657,103.061ZM331.9,67.246a3.017,3.017,0,0,0,.187,1.984,3.676,3.676,0,0,0,.947,1.754,31.159,31.159,0,0,1,4.948-.927q3.2-.4,3.679.351,1.151,1.693,3.206,8.467l14.921,49.178q2.055,6.775,2.038,8.821,0.015,0.89-2.863,2.336a31.154,31.154,0,0,1-4.63,1.979,3.691,3.691,0,0,0,.188,1.984,3.026,3.026,0,0,0,.947,1.754q11.795-4.216,13.606-4.766,1.693-.514,13.844-3.563a3.03,3.03,0,0,0-.187-1.984,3.679,3.679,0,0,0-.947-1.754,31.132,31.132,0,0,1-4.948.927q-3.2.4-3.679-.351-1.151-1.691-3.206-8.466l-6.592-21.728a2.427,2.427,0,0,1,.98-0.552,1.268,1.268,0,0,1,1.158.031q31.08,19.4,35.249,21.58a22.2,22.2,0,0,0,9.467,2.613q4.069,0.168,16.977-3.748a6.078,6.078,0,0,0-.148-1.645,3.248,3.248,0,0,0-.763-1.778,22.455,22.455,0,0,1-7.843.53,21.659,21.659,0,0,1-6.519-2.04q-1.734-.876-3.6-1.875t-3.472-1.88q-1.608-.883-3.86-2.209t-3.687-2.167q-1.435-.838-4.1-2.486t-3.93-2.443l-4.3-2.714q-3.038-1.916-4.138-2.6t-4.508-2.874q-3.406-2.187-4.431-2.833a0.856,0.856,0,0,1-.284-0.934q1.7-3,4.919-8.7t4.861-8.682q1.644-2.986,4.181-7.87t4.93-9.819a9.864,9.864,0,0,1,1.641-2.475,17.553,17.553,0,0,1,1.973-1.906,16.092,16.092,0,0,1,2.144-1.448,21.158,21.158,0,0,1,1.929-1q0.732-.318,1.65-0.66l0.916-.342q0.408-.124-0.031-1.681a5.983,5.983,0,0,0-.834-2.011q-1.034.378-5.2,1.992t-7.2,2.536q-1.928.585-4.211,1.15t-5.179,1.22q-2.895.656-4.256,1a6.061,6.061,0,0,0,.3,2.045,3.727,3.727,0,0,0,.8,1.576l0.5-.151,0.76-.23q0.32-.1.914-0.245t1.048-.222q0.456-.074,1.017-0.117a4.284,4.284,0,0,1,1.032.038,5.249,5.249,0,0,1,.9.237,1.752,1.752,0,0,1,.721.483,2.082,2.082,0,0,1,.432.794,6.845,6.845,0,0,1-.537,4.117q-1.641,4.262-3.459,7.938T371.7,83.234q-7.15,13.013-9.62,15.8l-7.053-23.246q-2.067-6.389-2.039-8.821-0.015-.888,2.864-2.336a31.132,31.132,0,0,1,4.629-1.979,3.668,3.668,0,0,0-.187-1.984,3.034,3.034,0,0,0-.947-1.754q-11.8,4.217-13.489,4.731-1.812.549-13.961,3.6h0ZM490.667,42.7q0.447-1.335,8.443-1.206A39.6,39.6,0,0,1,509.4,42.978a31.3,31.3,0,0,1,9.208,4.392,29.858,29.858,0,0,1,7.449,7.385,34.107,34.107,0,0,1,4.86,10.914,52.863,52.863,0,0,1,1.625,14.585A42.716,42.716,0,0,1,529.7,95.621a28.281,28.281,0,0,1-7.286,10.778,30.6,30.6,0,0,1-10.354,6.089,35.7,35.7,0,0,1-12.423,1.9q-8.787-.142-9.98-1.871-0.719-.865-0.59-8.8l0.843-51.995q-0.015-6.715.757-9.022h0Zm2.738-5.144q-6.316-.041-8.636-0.079-1.892-.031-14.392-0.844a2.636,2.636,0,0,0-.426,1.763,3.221,3.221,0,0,0,.368,1.776,31.171,31.171,0,0,1,5,.63q3.163,0.6,3.394,1.459,0.577,1.964.464,9.042l-0.845,52.117q-0.114,7.08-.757,9.022-0.258.852-3.44,1.349a31.24,31.24,0,0,1-5.013.468,3.23,3.23,0,0,0-.425,1.763,2.636,2.636,0,0,0,.368,1.776l30.513,0.5a62.671,62.671,0,0,0,17.858-2.03,38.043,38.043,0,0,0,12.824-5.958,33.046,33.046,0,0,0,8.266-9.114,37.96,37.96,0,0,0,4.666-11.064,56.159,56.159,0,0,0,1.481-12.246,41.159,41.159,0,0,0-2.706-15.732,36.464,36.464,0,0,0-8.188-12.677,38.313,38.313,0,0,0-13.413-8.519,51.1,51.1,0,0,0-17.893-3.312Q499.722,37.6,493.405,37.56Zm78.753,4.114a2.643,2.643,0,0,0-.77,1.642,3.226,3.226,0,0,0,0,1.814,31.138,31.138,0,0,1,4.767,1.619q2.979,1.222,3.034,2.11,0.173,2.04-1.358,8.951L566.564,108.7q-1.531,6.914-2.549,8.687-0.424.783-3.641,0.632a31.259,31.259,0,0,1-5-.547,3.227,3.227,0,0,0-.77,1.643,2.647,2.647,0,0,0,0,1.814q2.205,0.487,6.774,1.312t7.488,1.472q8.283,1.834,21.341,4.977t19.195,4.5a37.33,37.33,0,0,1,2.105-4.284q1.4-2.5,2.612-4.454t3.217-5.07q2-3.12,2.884-4.55-0.558-.874-2.822-1.375-1.49-.332-1.827.345a59.49,59.49,0,0,1-5.106,6.965,11.76,11.76,0,0,1-5.068,3.409,21.487,21.487,0,0,1-7.106.9,42.168,42.168,0,0,1-8.624-1l-5.721-1.267q-4.231-.937-5.77-1.466a5.288,5.288,0,0,1-2.428-1.6q-0.385-.522.1-3.416t1.006-4.966L581.87,88.71a0.588,0.588,0,0,1,.456-0.368,3.48,3.48,0,0,1,1.2-.077c0.533,0.035,1.044.086,1.529,0.151s1.127,0.177,1.927.333,1.416,0.282,1.854.379l1.847,0.409q11.144,2.468,12.422,3.752a4.522,4.522,0,0,1,1.074,2.207,48.488,48.488,0,0,1,.521,6.4,1.826,1.826,0,0,0,1.7,1.376,2.825,2.825,0,0,0,2.012-.054l4.99-22.526a2.88,2.88,0,0,0-1.894-1.045q-1.61-.356-1.973.438a7.835,7.835,0,0,0-.463.96q-0.873,1.682-1.464,2.8A6.913,6.913,0,0,1,606.23,85.7a5.611,5.611,0,0,1-1.549,1.064,5.758,5.758,0,0,1-2.287.306,19.375,19.375,0,0,1-3.207-.335q-1.683-.31-4.662-0.97l-6.316-1.4q-2.325-.515-3.722-0.981t-1.245-.87l4.937-22.287q1.253-6.224,2.47-8.33,0.707-1.218,8.514.511l10.25,2.27a15.282,15.282,0,0,1,8.162,4.215q2.8,3.027,3.181,10.05-0.006.875,1.484,1.2a3.083,3.083,0,0,0,2.277-.121q0.018-1.5-.068-7.454t0.2-9.52q-6.735-1.492-19.966-3.985T586.09,45.385q-1.848-.409-13.932-3.711h0Zm86.929,22.7q-1.948-.951-4.337-2.194T650.6,60.1a4.575,4.575,0,0,0-.913,1.633q-0.672,1.539-.5,1.611a16.627,16.627,0,0,1,3.61,2.409,6.148,6.148,0,0,1,2.426,3.291,63.642,63.642,0,0,1,.455,12.987q-0.558,14.543-1.715,36.482t-1.462,28.734l0.036,0.682a5.358,5.358,0,0,0,.056,1.09,0.655,0.655,0,0,0,.245.507q2.685,1.171,5.912-1.947,25.155-24.045,44.863-43.545,7.326-7.322,10.528-8.855a8.1,8.1,0,0,1,4.532-.618,14.534,14.534,0,0,1,3.9.836q0.279,0.122.974-1.24a4.7,4.7,0,0,0,.666-1.907q-1.647-.653-3.593-1.3t-3.634-1.287q-1.687-.637-3.98-1.638-3.356-1.466-11.438-5.529a3.059,3.059,0,0,0-1.161,1.591q-0.575,1.315-.256,1.653a10.956,10.956,0,0,1,1.648.953,24.347,24.347,0,0,1,2.164,1.678,5.763,5.763,0,0,1,1.7,2.372,3.324,3.324,0,0,1-.03,2.584q-1.173,2.685-5.434,6.951-6.52,6.543-15.417,15.245t-14.92,14.563q-6.023,5.861-6.757,6.473,1.023-19.267,3.024-52.362,0.361-6.169,1.365-8.462a2.69,2.69,0,0,1,1.713-1.483,5.877,5.877,0,0,1,2.667-.234,18.727,18.727,0,0,1,2.429.462,11.88,11.88,0,0,1,1.515.5q0.36,0.092.974-1.24a6.915,6.915,0,0,0,.667-1.907q-11.432-4.327-14.116-5.5Q661.036,65.326,659.087,64.375Zm81.9,38.4A2.637,2.637,0,0,0,739.653,104a3.209,3.209,0,0,0-.682,1.68,31.242,31.242,0,0,1,3.8,3.3q2.3,2.259,2.01,3.1-0.613,1.953-4.644,7.772L710.445,162.7q-4.034,5.82-5.648,7.077-0.687.564-3.608-.793a31.246,31.246,0,0,1-4.427-2.4,3.228,3.228,0,0,0-1.334,1.229,2.635,2.635,0,0,0-.682,1.681q1.854,1.285,5.772,3.778t6.375,4.195q6.972,4.833,17.87,12.683t16.064,11.431a37.234,37.234,0,0,1,3.571-3.17q2.241-1.788,4.1-3.134t4.9-3.475q3.036-2.13,4.391-3.121-0.185-1.02-2.091-2.34-1.254-.87-1.822-0.372a59.424,59.424,0,0,1-7.362,4.515,11.764,11.764,0,0,1-5.982,1.237,21.5,21.5,0,0,1-6.916-1.86,42.152,42.152,0,0,1-7.6-4.192l-4.815-3.338q-3.562-2.469-4.787-3.54a5.289,5.289,0,0,1-1.641-2.4q-0.159-.63,1.385-3.124t2.811-4.216l13.212-19.063a0.586,0.586,0,0,1,.561-0.167,3.475,3.475,0,0,1,1.145.384q0.72,0.352,1.358.719t1.657,1.037q1.02,0.671,1.573,1.053l1.555,1.078q9.38,6.5,10.079,8.173a4.541,4.541,0,0,1,.159,2.45,48.661,48.661,0,0,1-1.94,6.119,1.826,1.826,0,0,0,1.049,1.915,2.826,2.826,0,0,0,1.884.712L764.4,154.5a2.876,2.876,0,0,0-1.358-1.683q-1.355-.939-1.991-0.341a7.682,7.682,0,0,0-.792.714q-1.446,1.225-2.416,2.038a6.9,6.9,0,0,1-1.977,1.192,5.632,5.632,0,0,1-1.836.4,5.761,5.761,0,0,1-2.232-.582,19.445,19.445,0,0,1-2.843-1.525q-1.44-.923-3.947-2.661l-5.318-3.686a38.342,38.342,0,0,1-3.073-2.316q-1.118-.958-0.824-1.276l13-18.761q3.514-5.287,5.438-6.776,1.116-.859,7.688,3.694l8.628,5.98a15.287,15.287,0,0,1,5.961,6.991q1.445,3.861-.859,10.507-0.336.807,0.918,1.675a3.08,3.08,0,0,0,2.154.75q0.582-1.377,2.757-6.925t3.79-8.736q-5.67-3.928-16.973-11.244t-15.82-10.444q-1.555-1.079-11.491-8.707h0Zm73.127,75.394q4.669-4.824,6.831-5.941,0.777-.43,3.406,1.431a31.109,31.109,0,0,1,3.921,3.158,3.219,3.219,0,0,0,1.534-.968,2.649,2.649,0,0,0,.975-1.53q-9.262-8.435-10.511-9.689-1.336-1.341-9.732-10.637a2.634,2.634,0,0,0-1.534.968,3.23,3.23,0,0,0-.975,1.53,31.126,31.126,0,0,1,3.143,3.934q1.849,2.636,1.417,3.413-0.954,1.81-5.97,6.806l-36.932,36.782q-5.018,5-6.832,5.942-0.779.43-3.406-1.431a31.116,31.116,0,0,1-3.921-3.159,3.223,3.223,0,0,0-1.534.968,2.636,2.636,0,0,0-.974,1.53q1.593,1.6,5,4.758t5.514,5.277q5.985,6.011,15.289,15.7t13.738,14.141a37.558,37.558,0,0,1,4.084-2.473q2.528-1.355,4.6-2.343t5.443-2.535q3.371-1.547,4.882-2.277,0-1.036-1.635-2.679-1.077-1.082-1.725-.694Q800,242.531,794.045,241.4a17.368,17.368,0,0,1-6.274-2.8,39.261,39.261,0,0,1-6.14-5l-4.91-4.931q-3.058-3.071-4.069-4.345a5.294,5.294,0,0,1-1.182-2.657q-0.086-.949,5.711-6.721Zm77.4,84.113a28.993,28.993,0,0,1-2.61,12.837,48.058,48.058,0,0,1-7.539,11.637,51.009,51.009,0,0,1-10.8,9.425,55.828,55.828,0,0,1-8.823,4.682,40.5,40.5,0,0,1-9.5,2.684,32.829,32.829,0,0,1-9.347.182,21.219,21.219,0,0,1-8.53-3.154,22.707,22.707,0,0,1-7-7.02,23.324,23.324,0,0,1-3.87-12.445,28.736,28.736,0,0,1,2.7-12.861,48.77,48.77,0,0,1,7.649-11.636,52.015,52.015,0,0,1,10.841-9.416,54.663,54.663,0,0,1,8.772-4.649,41.011,41.011,0,0,1,9.409-2.66,31.706,31.706,0,0,1,9.279-.174,21.511,21.511,0,0,1,8.488,3.145,22.516,22.516,0,0,1,6.988,7A23.5,23.5,0,0,1,891.519,262.28Zm-10.483-24.125a40.674,40.674,0,0,0-14.282-5.784,42.635,42.635,0,0,0-30.907,6.157,43.383,43.383,0,0,0-12.187,11.711,38.531,38.531,0,0,0-6.558,29.492,38.449,38.449,0,0,0,5.718,14.447,37.063,37.063,0,0,0,11.056,11.011,40.871,40.871,0,0,0,14.306,5.877,41.557,41.557,0,0,0,15.744.028,41.1,41.1,0,0,0,15.178-6.049,43.393,43.393,0,0,0,12.247-11.786,39.247,39.247,0,0,0,6.319-14.411,40.229,40.229,0,0,0,.165-15.251,38.7,38.7,0,0,0-5.734-14.473A36.59,36.59,0,0,0,881.036,238.155Zm53.493,123.176a23.247,23.247,0,0,0,3.544-11.78,31.648,31.648,0,0,0-2.253-12.523q-1.427-3.638-3.611-8.877t-2.943-7.172q-0.69-1.762-4.689-13.633a2.636,2.636,0,0,0-1.792.276,3.227,3.227,0,0,0-1.5,1.015A31.329,31.329,0,0,1,922.6,313.5q0.647,3.155-.06,3.694-1.6,1.281-8.187,3.865L865.821,340.08q-6.592,2.584-8.633,2.729-0.885.084-2.554-2.67a31.093,31.093,0,0,1-2.338-4.459,3.221,3.221,0,0,0-1.793.276,2.638,2.638,0,0,0-1.5,1.015q5.133,11.427,5.825,13.188,0.646,1.649,4.644,13.52a2.65,2.65,0,0,0,1.793-.276,3.231,3.231,0,0,0,1.5-1.016,31.2,31.2,0,0,1-1.315-4.86q-0.647-3.156.06-3.694,1.594-1.283,8.187-3.865l48.415-18.979q7.16-2.806,8.747-2.773,1.337,0.066,3.364,5.237,3.608,9.206.45,15.951t-11.852,10.152q-8.3,3.254-14.8.555a16.545,16.545,0,0,1-9.261-9.743,19.487,19.487,0,0,1-.9-4.631,0.365,0.365,0,0,0-.19-0.318,0.812,0.812,0,0,0-.323-0.071,0.737,0.737,0,0,0-.278.044,3.272,3.272,0,0,0-1.877,2.571,11.836,11.836,0,0,0,1.007,5.243q4.387,11.194,13.345,15.649t19.3,0.4A19.289,19.289,0,0,0,934.529,361.331Zm17.664,22.047a2.64,2.64,0,0,0-1.813-.048,3.232,3.232,0,0,0-1.661.731,31.119,31.119,0,0,1,.427,5.017q0.074,3.219-.717,3.625-1.8.975-8.746,2.342L888.539,405.1q-6.948,1.367-8.981,1.145-0.887-.075-2.037-3.083a31.081,31.081,0,0,1-1.5-4.805,3.236,3.236,0,0,0-1.814-.048,2.648,2.648,0,0,0-1.66.731q0.436,2.216,1.511,6.732t1.652,7.451q1.636,8.324,3.989,21.547t3.565,19.391a37.473,37.473,0,0,1,4.77.212q2.853,0.279,5.127.609t5.934,0.917q3.661,0.586,5.324.819,0.577-.861.13-3.136-0.3-1.5-1.049-1.535a59.427,59.427,0,0,1-8.427-1.889,11.762,11.762,0,0,1-5.154-3.278,21.477,21.477,0,0,1-3.667-6.152,42.146,42.146,0,0,1-2.535-8.3l-1.131-5.749q-0.837-4.252-.969-5.874a5.293,5.293,0,0,1,.494-2.865q0.324-.562,3.17-1.277t4.953-1.068l22.757-4.476a0.588,0.588,0,0,1,.52.271,3.476,3.476,0,0,1,.553,1.073q0.273,0.754.475,1.462t0.466,1.9q0.265,1.191.395,1.851t0.366,1.856q2.2,11.2,1.539,12.885a4.534,4.534,0,0,1-1.592,1.868,48.527,48.527,0,0,1-5.654,3.04,1.826,1.826,0,0,0-.581,2.1,2.82,2.82,0,0,0,.856,1.822l22.637-4.452a2.88,2.88,0,0,0,.2-2.154q-0.318-1.617-1.192-1.632a7.866,7.866,0,0,0-1.065-.039q-1.891-.126-3.154-0.22a6.909,6.909,0,0,1-2.248-.521,5.615,5.615,0,0,1-1.6-.993,5.755,5.755,0,0,1-1.2-1.973,19.358,19.358,0,0,1-.978-3.073q-0.39-1.666-.978-4.66l-1.249-6.348q-0.459-2.335-.592-3.8t0.3-1.49l22.4-4.405q6.2-1.345,8.622-1.074,1.4,0.159,2.943,8.006l2.026,10.3a15.285,15.285,0,0,1-.592,9.167q-1.653,3.779-7.934,6.942-0.8.345-.509,1.842a3.086,3.086,0,0,0,1.023,2.038q1.379-.583,6.8-3.049t8.8-3.629q-1.331-6.768-4.347-19.89t-4.077-18.513q-0.366-1.857-2.181-14.251h0Zm13.949,107.007q-0.215-5.673-.247-7.748-0.031-1.893.376-14.413a2.642,2.642,0,0,0-1.776-.367,3.21,3.21,0,0,0-1.763.425,31.133,31.133,0,0,1-.468,5.013q-0.5,3.181-1.348,3.44-1.944.642-9.023,0.757l-52.116.906q-7.507,0-9.042-.464-0.859-.231-1.459-3.4a31.233,31.233,0,0,1-.63-5,3.224,3.224,0,0,0-1.776-.368,2.645,2.645,0,0,0-1.764.425q0.813,12.5.844,14.393,0.029,1.77-.379,14.29a2.652,2.652,0,0,0,1.777.368,3.239,3.239,0,0,0,1.763-.425,31.114,31.114,0,0,1,.468-5.013q0.5-3.183,1.348-3.441,1.942-.642,9.022-0.756l22.7-.368,0.105,6.469q0.043,2.683-1.4,3.685-8.152,5.444-17.327,11.849t-11.285,8.027a15.727,15.727,0,0,0-2.043,1.986,17.735,17.735,0,0,0-3.2,6.034q-1.4,4.235-1.2,16.135a6.085,6.085,0,0,0,1.622.309,3.252,3.252,0,0,0,1.919-.244,19.738,19.738,0,0,1,1.915-8,18.859,18.859,0,0,1,5.185-5.914A319.793,319.793,0,0,1,925.3,508.811a26.764,26.764,0,0,0,8.213,11.435q5.909,5,12.2,4.9a18.465,18.465,0,0,0,9.087-2.437,19.562,19.562,0,0,0,6.585-6.089,29.859,29.859,0,0,0,3.807-8.058,28.076,28.076,0,0,0,1.234-8.6Q966.357,496.058,966.142,490.385ZM931.668,508.25a19.647,19.647,0,0,1-5.127-13.133l-0.106-6.53,25.509-.474q7.689-.125,9.163.462,1.23,0.53,1.32,6.082,0.158,9.7-4.682,14.33t-13.321,4.764A15.945,15.945,0,0,1,931.668,508.25Z"/>
</svg>
